<?xml version="1.0" encoding="UTF-8" standalone="no"?>
<!-- Created with Inkscape (http://www.inkscape.org/) -->

<svg
   width="215.98511"
   height="217.99109"
   viewBox="0 0 215.98511 217.99109"
   version="1.1"
   id="svg1"
   xml:space="preserve"
   sodipodi:docname="logo.svg"
   inkscape:version="1.4.3 (0d15f75, 2025-12-25)"
   xmlns:inkscape="http://www.inkscape.org/namespaces/inkscape"
   xmlns:sodipodi="http://sodipodi.sourceforge.net/DTD/sodipodi-0.dtd"
   xmlns="http://www.w3.org/2000/svg"
   xmlns:svg="http://www.w3.org/2000/svg"><sodipodi:namedview
     id="namedview1"
     pagecolor="#ffffff"
     bordercolor="#000000"
     borderopacity="0.25"
     inkscape:showpageshadow="2"
     inkscape:pageopacity="0.0"
     inkscape:pagecheckerboard="0"
     inkscape:deskcolor="#d1d1d1"
     inkscape:document-units="px"
     inkscape:zoom="8.42695"
     inkscape:cx="107.98688"
     inkscape:cy="108.99554"
     inkscape:window-width="3840"
     inkscape:window-height="2054"
     inkscape:window-x="1789"
     inkscape:window-y="-11"
     inkscape:window-maximized="1"
     inkscape:current-layer="layer1"><inkscape:page
       x="0"
       y="0"
       width="215.98511"
       height="217.99109"
       id="page2"
       margin="0"
       bleed="0" /></sodipodi:namedview><defs
     id="defs1" /><g
     inkscape:label="Layer 1"
     inkscape:groupmode="layer"
     id="layer1"
     transform="translate(-664.99999,-395)"><path
       id="path33"
       style="fill:#000000;fill-opacity:1;stroke:none;stroke-width:4.48105;stroke-dasharray:none;stroke-opacity:1"
       d="m 804.68294,594.27238 a 101.06607,102.06905 0 0 0 42.3535,-27.45117 V 457.92863 c 0,-6.38438 -4.7187,-11.52344 -10.58,-11.52344 h -21.1934 c -5.8613,0 -10.5801,5.13906 -10.5801,11.52344 z m 32.0625,-109.13672 c 0.06,-0.002 0.1194,-0.002 0.1797,0 0.3215,0.0123 0.6478,0.0948 0.959,0.25195 1.2449,0.62853 1.7822,2.22602 1.2051,3.58204 l -10.6172,24.94921 v 0.002 0.002 c -0.094,0.3351 -0.2506,0.65484 -0.4707,0.94141 -0.6851,0.89154 -1.7773,1.17755 -2.7246,0.81054 -0.064,-0.0248 -0.1271,-0.0512 -0.1895,-0.082 -0.016,-0.007 -0.031,-0.0137 -0.047,-0.0215 -0.026,-0.0133 -0.052,-0.0288 -0.078,-0.043 -0.09,-0.051 -0.1765,-0.10787 -0.2617,-0.17188 -0.06,-0.0439 -0.1163,-0.0919 -0.1719,-0.14062 0,-0.002 -0.01,-0.004 -0.01,-0.006 0,-0.002 -0.01,-0.005 -0.01,-0.008 l -0.164,-0.15039 -11.5703,-10.54493 c -1.0523,-0.95928 -1.1892,-2.65658 -0.3086,-3.80273 0.8807,-1.14615 2.4361,-1.29519 3.4883,-0.33594 l 9.2382,8.41992 9.4004,-22.08789 c 0.4058,-0.95345 1.2513,-1.52702 2.1504,-1.56445 z" /><path
       id="path31"
       style="fill:#000000;fill-opacity:1;stroke:none;stroke-width:4.48105;stroke-dasharray:none;stroke-opacity:1"
       d="m 751.81384,597.15324 a 101.06607,102.06905 0 0 0 21.1777,2.26562 101.06607,102.06905 0 0 0 21.1777,-2.26562 V 438.42668 c 0,-7.51229 -5.261,-13.5586 -11.7949,-13.5586 h -18.7636 c -6.5339,0 -11.7969,6.04631 -11.7969,13.5586 z m 12.373,-160.70899 h 17.6114 c 4.0855,0 7.373,3.77937 7.373,8.47657 v 16.46679 c 0,4.69722 -3.2875,8.47852 -7.373,8.47852 h -17.6114 c -4.0856,0 -7.373,-3.7813 -7.373,-8.47852 v -16.46679 c 0,-4.6972 3.2874,-8.47657 7.373,-8.47657 z m -3.5586,75.89649 h 24.7266 c 1.1987,0 2.1641,1.11014 2.1641,2.48828 0,1.37816 -0.9654,2.48633 -2.1641,2.48633 h -24.7266 c -1.1987,0 -2.164,-1.10817 -2.164,-2.48633 0,-1.37814 0.9653,-2.48828 2.164,-2.48828 z m 0,15.49805 h 24.7266 c 1.1987,0 2.1641,1.11013 2.1641,2.48828 0,1.37816 -0.9654,2.48828 -2.1641,2.48828 h -24.7266 c -1.1987,0 -2.164,-1.11012 -2.164,-2.48828 0,-1.37815 0.9653,-2.48828 2.164,-2.48828 z m 0,15.49804 h 24.7266 c 1.1987,0 2.1641,1.11014 2.1641,2.48828 0,1.37814 -0.9654,2.4883 -2.1641,2.48828 h -24.7266 c -1.1987,0 -2.164,-1.11014 -2.164,-2.48828 0,-1.37814 0.9653,-2.48828 2.164,-2.48828 z" /><path
       id="path29"
       style="fill:#000000;fill-opacity:1;stroke:none;stroke-width:4.48105;stroke-dasharray:none;stroke-opacity:1"
       d="m 698.94854,566.82121 a 101.06607,102.06905 0 0 0 42.3536,27.45117 V 479.75089 c 0,-5.76319 -3.9151,-10.40234 -8.7793,-10.40234 h -24.793 c -4.8641,0 -8.7813,4.63913 -8.7813,10.40234 z m 8.1797,-37.97656 h 25.5899 c 1.3722,0 2.4765,1.30977 2.4765,2.93554 0,1.62577 -1.1043,2.9336 -2.4765,2.9336 h -25.5899 c -1.3722,0 -2.4765,-1.30783 -2.4765,-2.9336 0,-1.62577 1.1043,-2.93555 2.4765,-2.93554 z" /><ellipse
       style="fill:#000000;fill-opacity:0;stroke:#000000;stroke-width:13.853;stroke-dasharray:none;stroke-opacity:1"
       id="path1-2-4-4"
       cx="772.99255"
       cy="503.99554"
       rx="101.06607"
       ry="102.06905" /></g></svg>
